<?xml version="1.0" encoding="UTF-8"?>
<svg width="1224px" height="175px" viewBox="0 0 1224 175" version="1.1" xmlns="http://www.w3.org/2000/svg" xmlns:xlink="http://www.w3.org/1999/xlink">
    <title>编组 2</title>
    <g id="页面-1" stroke="none" stroke-width="1" fill="none" fill-rule="evenodd">
        <g id="Standard-Combination-标准组合" transform="translate(-212.000000, -342.000000)">
            <g id="编组-2" transform="translate(212.080461, 342.421111)">
                <g id="编组">
                    <path d="M340.410596,142.695364 C381.509934,142.695364 407.821192,112.543046 407.821192,71.2516556 C407.821192,29.9602649 381.509934,0 340.410596,0 C299.311258,0 273,29.9602649 273,71.2516556 C273,112.543046 299.311258,142.695364 340.410596,142.695364 Z M340.410596,124.450331 C307.953642,124.450331 295.086093,99.4834437 295.086093,71.2516556 C295.086093,43.0198675 307.953642,18.2450331 340.410596,18.2450331 C372.86755,18.2450331 385.735099,43.0198675 385.735099,71.2516556 C385.735099,99.4834437 372.86755,124.450331 340.410596,124.450331 Z M466.263442,39.1788079 C450.899204,39.1788079 441.488608,46.6688742 436.111125,53.5827815 L435.727019,53.5827815 L435.727019,42.0596026 L416.905827,42.0596026 L416.905827,174 L435.727019,174 L435.727019,127.907285 L436.111125,127.907285 C441.488608,135.781457 450.899204,142.695364 466.263442,142.695364 C491.23033,142.695364 510.243575,123.298013 510.243575,91.0331126 C510.243575,58.7682119 491.23033,39.1788079 466.263442,39.1788079 Z M463.190595,127.139073 C446.289933,127.139073 435.919072,113.119205 435.919072,91.0331126 C435.919072,68.7549669 446.289933,54.9271523 463.190595,54.9271523 C481.627681,54.9271523 490.462118,71.8278146 490.462118,91.0331126 C490.462118,110.238411 481.627681,127.139073 463.190595,127.139073 Z M609.209004,88.9205298 C609.209004,58.5761589 592.500395,38.986755 562.732183,38.986755 C532.771918,38.986755 514.334832,60.1125828 514.334832,90.8410596 C514.334832,120.801325 531.6196,142.887417 562.732183,142.887417 C588.467282,142.887417 602.871256,128.675497 608.056686,109.854305 L588.851388,109.854305 C587.122911,116.384106 580.401057,127.523179 563.116289,127.523179 C543.718938,127.523179 534.116289,112.350993 533.732183,96.0264901 L609.016951,96.0264901 C609.209004,94.4900662 609.209004,91.6092715 609.209004,88.9205298 Z M533.732183,81.2384106 C534.884501,65.1059603 546.40768,54.3509934 562.156024,54.3509934 C578.864633,54.3509934 589.6196,65.8741722 589.6196,81.2384106 L533.732183,81.2384106 Z M669.571784,39.1788079 C687.624765,39.1788079 702.220791,49.5496689 702.220791,72.0198675 L702.220791,140.006623 L683.399599,140.006623 L683.399599,77.205298 C683.399599,64.1456954 677.63801,55.3112583 663.426089,55.3112583 C647.293639,55.3112583 636.922778,65.1059603 636.922778,79.8940397 L636.922778,140.006623 L618.101586,140.006623 L618.101586,42.0596026 L636.922778,42.0596026 L636.922778,54.3509934 L637.306884,54.3509934 C642.492314,46.8609272 652.671122,39.1788079 669.571784,39.1788079 Z M722.636551,2.68874172 L746.835227,110.81457 L747.219333,110.81457 L775.643174,2.68874172 L797.92132,2.68874172 L826.537214,110.81457 L826.92132,110.81457 L851.119995,2.68874172 L873.206088,2.68874172 L838.828604,140.006623 L816.166353,140.006623 L786.9743,29.5761589 L786.590194,29.5761589 L757.590194,140.006623 L734.735889,140.006623 L700.550459,2.68874172 L722.636551,2.68874172 Z M930.688073,39.1788079 C913.787411,39.1788079 903.608603,46.8609272 898.423173,54.3509934 L898.039067,54.3509934 L898.039067,2.68874172 L879.217875,2.68874172 L879.217875,140.006623 L898.039067,140.006623 L898.039067,79.8940397 C898.039067,65.1059603 908.409928,55.3112583 924.542378,55.3112583 C938.754299,55.3112583 944.515888,64.1456954 944.515888,77.205298 L944.515888,140.006623 L963.33708,140.006623 L963.33708,72.0198675 C963.33708,49.5496689 948.741054,39.1788079 930.688073,39.1788079 Z M1003.72635,142.695364 C1019.66675,142.695364 1030.80582,136.357616 1037.14357,126.178808 L1037.52767,126.178808 C1038.67999,137.317881 1043.67337,140.966887 1053.08397,140.966887 C1056.15681,140.966887 1059.42171,140.582781 1062.68662,139.81457 L1062.68662,128.291391 C1061.5343,128.483444 1060.95814,128.483444 1060.38198,128.483444 C1056.73297,128.483444 1055.77271,124.834437 1055.77271,117.728477 L1055.77271,72.7880795 C1055.77271,47.4370861 1039.64026,38.986755 1019.47469,38.986755 C989.51443,38.986755 977.223039,53.7748344 976.262774,72.5960265 L995.468072,72.5960265 C996.428337,59.5364238 1001.61377,54.1589404 1018.70648,54.1589404 C1033.11046,54.1589404 1037.33562,60.1125828 1037.33562,67.218543 C1037.33562,76.8211921 1027.92503,78.7417219 1012.56079,81.6225166 C988.170059,86.2317881 971.653503,92.7615894 971.653503,114.655629 C971.653503,131.364238 984.136946,142.695364 1003.72635,142.695364 Z M1007.95152,127.523179 C996.236284,127.523179 991.242907,122.529801 991.242907,113.311258 C991.242907,103.13245 998.54092,98.3311258 1015.82569,94.8741722 C1025.81244,92.7615894 1034.26277,90.6490066 1037.33562,87.7682119 L1037.33562,101.788079 C1037.33562,118.880795 1024.85218,127.523179 1007.95152,127.523179 Z M1167.49399,17.0937048 C1159.84413,17.1487307 1157.59404,19.5208136 1157.59404,29.7682119 L1157.59404,42.0596026 L1175.83908,42.0596026 L1175.83908,57.615894 L1157.59404,57.615894 L1157.59404,140.006623 L1138.27973,140.006623 L1138.27973,57.615894 L1124.83602,57.615894 L1124.83565,57.6041295 C1123.1098,57.6224875 1121.62793,57.6409837 1119.78449,57.807947 C1102.71347,59.354098 1090.40039,70.6754967 1090.40039,89.3046358 L1090.40039,140.006623 L1071.5792,140.006623 L1071.5792,42.0596026 L1090.40039,42.0596026 L1090.40039,60.6887417 L1090.78449,60.6887417 C1095.96993,48.397351 1103.86281,43.6535669 1117.09575,42.3890696 C1120.46201,42.0674005 1123.13849,41.9905442 1126.12224,42.0608736 L1126.069,42.059 L1138.27973,42.0596026 L1138.27973,30.1523179 C1138.27973,7.49006623 1147.69032,1.34437086 1163.63072,1.34437086 L1163.93179,1.34437086 C1167.5808,1.34437086 1170.46159,1.72847682 1175.83908,2.49668874 L1175.83908,17.6688742 C1175.73654,17.65862 1175.63564,17.6485027 1175.53631,17.6385223 L1175.538,17.6688742 C1171.69694,17.2847682 1170.16052,17.0927152 1167.47178,17.0927152 Z" id="形状结合备份" fill="#F5F5FA"></path>
                    <path d="M187.700116,108.997875 L225,109.005341 L187.7,145.979 L187.700116,146 L37.1787719,146 L37.1787719,108.997875 L187.700116,108.997875 Z M187.700116,16 L187.7,52.983 L224.77854,52.9832744 L224.77854,108.98649 L187.649942,108.98649 L187.649,53.002 L37.1787719,53.0021248 L37.178,52.983 L37.1285981,52.9832744 L37.1285981,109.486519 L0,109.486519 L0,52.9832744 L0.0419385792,52.9832744 L37.178,16.17 L37.1787719,16 L187.700116,16 Z" id="形状结合" fill="#FFFFFF"></path>
                </g>
                <text id="™备份-2" font-family="PingFangSC-Regular, PingFang SC" font-size="32" font-weight="normal" line-spacing="16" letter-spacing="-1.17431193" fill="#FFFFFF">
                    <tspan x="1195.61538" y="43.5788889">™</tspan>
                </text>
            </g>
        </g>
    </g>
</svg>